<?xml version="1.0" encoding="utf-8" standalone="no"?>
<!DOCTYPE svg PUBLIC "-//W3C//DTD SVG 1.1//EN"
  "http://www.w3.org/Graphics/SVG/1.1/DTD/svg11.dtd">
<svg xmlns:xlink="http://www.w3.org/1999/xlink" width="1152pt" height="432pt" viewBox="0 0 1152 432" xmlns="http://www.w3.org/2000/svg" version="1.1">
 <metadata>
  <rdf:RDF xmlns:dc="http://purl.org/dc/elements/1.1/" xmlns:cc="http://creativecommons.org/ns#" xmlns:rdf="http://www.w3.org/1999/02/22-rdf-syntax-ns#">
   <cc:Work>
    <dc:type rdf:resource="http://purl.org/dc/dcmitype/StillImage"/>
    <dc:date>2022-08-03T17:22:38.589522</dc:date>
    <dc:format>image/svg+xml</dc:format>
    <dc:creator>
     <cc:Agent>
      <dc:title>Matplotlib v3.5.2, https://matplotlib.org/</dc:title>
     </cc:Agent>
    </dc:creator>
   </cc:Work>
  </rdf:RDF>
 </metadata>
 <defs>
  <style type="text/css">*{stroke-linejoin: round; stroke-linecap: butt}</style>
 </defs>
 <g id="figure_1">
  <g id="patch_1">
   <path d="M 0 432 
L 1152 432 
L 1152 0 
L 0 0 
z
" style="fill: #ffffff"/>
  </g>
  <g id="axes_1">
   <g id="patch_2">
    <path d="M 144 384.48 
L 1036.8 384.48 
L 1036.8 51.84 
L 144 51.84 
z
" style="fill: #ffffff"/>
   </g>
   <g id="matplotlib.axis_1">
    <g id="xtick_1">
     <g id="line2d_1">
      <path d="M 309.52176 384.48 
L 309.52176 51.84 
" clip-path="url(#p9503e2a842)" style="fill: none; stroke: #b0b0b0; stroke-width: 0.8; stroke-linecap: square"/>
     </g>
     <g id="line2d_2">
      <defs>
       <path id="m465ec1646f" d="M 0 0 
L 0 3.5 
" style="stroke: #000000; stroke-width: 0.8"/>
      </defs>
      <g>
       <use xlink:href="#m465ec1646f" x="309.52176" y="384.48" style="stroke: #000000; stroke-width: 0.8"/>
      </g>
     </g>
     <g id="text_1">
      <!-- 2018 -->
      <g transform="translate(296.79676 399.078438)scale(0.1 -0.1)">
       <defs>
        <path id="DejaVuSans-32" d="M 1228 531 
L 3431 531 
L 3431 0 
L 469 0 
L 469 531 
Q 828 903 1448 1529 
Q 2069 2156 2228 2338 
Q 2531 2678 2651 2914 
Q 2772 3150 2772 3378 
Q 2772 3750 2511 3984 
Q 2250 4219 1831 4219 
Q 1534 4219 1204 4116 
Q 875 4013 500 3803 
L 500 4441 
Q 881 4594 1212 4672 
Q 1544 4750 1819 4750 
Q 2544 4750 2975 4387 
Q 3406 4025 3406 3419 
Q 3406 3131 3298 2873 
Q 3191 2616 2906 2266 
Q 2828 2175 2409 1742 
Q 1991 1309 1228 531 
z
" transform="scale(0.015625)"/>
        <path id="DejaVuSans-30" d="M 2034 4250 
Q 1547 4250 1301 3770 
Q 1056 3291 1056 2328 
Q 1056 1369 1301 889 
Q 1547 409 2034 409 
Q 2525 409 2770 889 
Q 3016 1369 3016 2328 
Q 3016 3291 2770 3770 
Q 2525 4250 2034 4250 
z
M 2034 4750 
Q 2819 4750 3233 4129 
Q 3647 3509 3647 2328 
Q 3647 1150 3233 529 
Q 2819 -91 2034 -91 
Q 1250 -91 836 529 
Q 422 1150 422 2328 
Q 422 3509 836 4129 
Q 1250 4750 2034 4750 
z
" transform="scale(0.015625)"/>
        <path id="DejaVuSans-31" d="M 794 531 
L 1825 531 
L 1825 4091 
L 703 3866 
L 703 4441 
L 1819 4666 
L 2450 4666 
L 2450 531 
L 3481 531 
L 3481 0 
L 794 0 
L 794 531 
z
" transform="scale(0.015625)"/>
        <path id="DejaVuSans-38" d="M 2034 2216 
Q 1584 2216 1326 1975 
Q 1069 1734 1069 1313 
Q 1069 891 1326 650 
Q 1584 409 2034 409 
Q 2484 409 2743 651 
Q 3003 894 3003 1313 
Q 3003 1734 2745 1975 
Q 2488 2216 2034 2216 
z
M 1403 2484 
Q 997 2584 770 2862 
Q 544 3141 544 3541 
Q 544 4100 942 4425 
Q 1341 4750 2034 4750 
Q 2731 4750 3128 4425 
Q 3525 4100 3525 3541 
Q 3525 3141 3298 2862 
Q 3072 2584 2669 2484 
Q 3125 2378 3379 2068 
Q 3634 1759 3634 1313 
Q 3634 634 3220 271 
Q 2806 -91 2034 -91 
Q 1263 -91 848 271 
Q 434 634 434 1313 
Q 434 1759 690 2068 
Q 947 2378 1403 2484 
z
M 1172 3481 
Q 1172 3119 1398 2916 
Q 1625 2713 2034 2713 
Q 2441 2713 2670 2916 
Q 2900 3119 2900 3481 
Q 2900 3844 2670 4047 
Q 2441 4250 2034 4250 
Q 1625 4250 1398 4047 
Q 1172 3844 1172 3481 
z
" transform="scale(0.015625)"/>
       </defs>
       <use xlink:href="#DejaVuSans-32"/>
       <use xlink:href="#DejaVuSans-30" x="63.623047"/>
       <use xlink:href="#DejaVuSans-31" x="127.246094"/>
       <use xlink:href="#DejaVuSans-38" x="190.869141"/>
      </g>
     </g>
    </g>
    <g id="xtick_2">
     <g id="line2d_3">
      <path d="M 482.260694 384.48 
L 482.260694 51.84 
" clip-path="url(#p9503e2a842)" style="fill: none; stroke: #b0b0b0; stroke-width: 0.8; stroke-linecap: square"/>
     </g>
     <g id="line2d_4">
      <g>
       <use xlink:href="#m465ec1646f" x="482.260694" y="384.48" style="stroke: #000000; stroke-width: 0.8"/>
      </g>
     </g>
     <g id="text_2">
      <!-- 2019 -->
      <g transform="translate(469.535694 399.078438)scale(0.1 -0.1)">
       <defs>
        <path id="DejaVuSans-39" d="M 703 97 
L 703 672 
Q 941 559 1184 500 
Q 1428 441 1663 441 
Q 2288 441 2617 861 
Q 2947 1281 2994 2138 
Q 2813 1869 2534 1725 
Q 2256 1581 1919 1581 
Q 1219 1581 811 2004 
Q 403 2428 403 3163 
Q 403 3881 828 4315 
Q 1253 4750 1959 4750 
Q 2769 4750 3195 4129 
Q 3622 3509 3622 2328 
Q 3622 1225 3098 567 
Q 2575 -91 1691 -91 
Q 1453 -91 1209 -44 
Q 966 3 703 97 
z
M 1959 2075 
Q 2384 2075 2632 2365 
Q 2881 2656 2881 3163 
Q 2881 3666 2632 3958 
Q 2384 4250 1959 4250 
Q 1534 4250 1286 3958 
Q 1038 3666 1038 3163 
Q 1038 2656 1286 2365 
Q 1534 2075 1959 2075 
z
" transform="scale(0.015625)"/>
       </defs>
       <use xlink:href="#DejaVuSans-32"/>
       <use xlink:href="#DejaVuSans-30" x="63.623047"/>
       <use xlink:href="#DejaVuSans-31" x="127.246094"/>
       <use xlink:href="#DejaVuSans-39" x="190.869141"/>
      </g>
     </g>
    </g>
    <g id="xtick_3">
     <g id="line2d_5">
      <path d="M 654.999629 384.48 
L 654.999629 51.84 
" clip-path="url(#p9503e2a842)" style="fill: none; stroke: #b0b0b0; stroke-width: 0.8; stroke-linecap: square"/>
     </g>
     <g id="line2d_6">
      <g>
       <use xlink:href="#m465ec1646f" x="654.999629" y="384.48" style="stroke: #000000; stroke-width: 0.8"/>
      </g>
     </g>
     <g id="text_3">
      <!-- 2020 -->
      <g transform="translate(642.274629 399.078438)scale(0.1 -0.1)">
       <use xlink:href="#DejaVuSans-32"/>
       <use xlink:href="#DejaVuSans-30" x="63.623047"/>
       <use xlink:href="#DejaVuSans-32" x="127.246094"/>
       <use xlink:href="#DejaVuSans-30" x="190.869141"/>
      </g>
     </g>
    </g>
    <g id="xtick_4">
     <g id="line2d_7">
      <path d="M 828.211821 384.48 
L 828.211821 51.84 
" clip-path="url(#p9503e2a842)" style="fill: none; stroke: #b0b0b0; stroke-width: 0.8; stroke-linecap: square"/>
     </g>
     <g id="line2d_8">
      <g>
       <use xlink:href="#m465ec1646f" x="828.211821" y="384.48" style="stroke: #000000; stroke-width: 0.8"/>
      </g>
     </g>
     <g id="text_4">
      <!-- 2021 -->
      <g transform="translate(815.486821 399.078438)scale(0.1 -0.1)">
       <use xlink:href="#DejaVuSans-32"/>
       <use xlink:href="#DejaVuSans-30" x="63.623047"/>
       <use xlink:href="#DejaVuSans-32" x="127.246094"/>
       <use xlink:href="#DejaVuSans-31" x="190.869141"/>
      </g>
     </g>
    </g>
    <g id="xtick_5">
     <g id="line2d_9">
      <path d="M 1000.950755 384.48 
L 1000.950755 51.84 
" clip-path="url(#p9503e2a842)" style="fill: none; stroke: #b0b0b0; stroke-width: 0.8; stroke-linecap: square"/>
     </g>
     <g id="line2d_10">
      <g>
       <use xlink:href="#m465ec1646f" x="1000.950755" y="384.48" style="stroke: #000000; stroke-width: 0.8"/>
      </g>
     </g>
     <g id="text_5">
      <!-- 2022 -->
      <g transform="translate(988.225755 399.078438)scale(0.1 -0.1)">
       <use xlink:href="#DejaVuSans-32"/>
       <use xlink:href="#DejaVuSans-30" x="63.623047"/>
       <use xlink:href="#DejaVuSans-32" x="127.246094"/>
       <use xlink:href="#DejaVuSans-32" x="190.869141"/>
      </g>
     </g>
    </g>
   </g>
   <g id="matplotlib.axis_2">
    <g id="ytick_1">
     <g id="line2d_11">
      <path d="M 144 327.065583 
L 1036.8 327.065583 
" clip-path="url(#p9503e2a842)" style="fill: none; stroke: #b0b0b0; stroke-width: 0.8; stroke-linecap: square"/>
     </g>
     <g id="line2d_12">
      <defs>
       <path id="me8fb85775a" d="M 0 0 
L -3.5 0 
" style="stroke: #000000; stroke-width: 0.8"/>
      </defs>
      <g>
       <use xlink:href="#me8fb85775a" x="144" y="327.065583" style="stroke: #000000; stroke-width: 0.8"/>
      </g>
     </g>
     <g id="text_6">
      <!-- 0.2 -->
      <g transform="translate(121.096875 330.864802)scale(0.1 -0.1)">
       <defs>
        <path id="DejaVuSans-2e" d="M 684 794 
L 1344 794 
L 1344 0 
L 684 0 
L 684 794 
z
" transform="scale(0.015625)"/>
       </defs>
       <use xlink:href="#DejaVuSans-30"/>
       <use xlink:href="#DejaVuSans-2e" x="63.623047"/>
       <use xlink:href="#DejaVuSans-32" x="95.410156"/>
      </g>
     </g>
    </g>
    <g id="ytick_2">
     <g id="line2d_13">
      <path d="M 144 259.797612 
L 1036.8 259.797612 
" clip-path="url(#p9503e2a842)" style="fill: none; stroke: #b0b0b0; stroke-width: 0.8; stroke-linecap: square"/>
     </g>
     <g id="line2d_14">
      <g>
       <use xlink:href="#me8fb85775a" x="144" y="259.797612" style="stroke: #000000; stroke-width: 0.8"/>
      </g>
     </g>
     <g id="text_7">
      <!-- 0.4 -->
      <g transform="translate(121.096875 263.596831)scale(0.1 -0.1)">
       <defs>
        <path id="DejaVuSans-34" d="M 2419 4116 
L 825 1625 
L 2419 1625 
L 2419 4116 
z
M 2253 4666 
L 3047 4666 
L 3047 1625 
L 3713 1625 
L 3713 1100 
L 3047 1100 
L 3047 0 
L 2419 0 
L 2419 1100 
L 313 1100 
L 313 1709 
L 2253 4666 
z
" transform="scale(0.015625)"/>
       </defs>
       <use xlink:href="#DejaVuSans-30"/>
       <use xlink:href="#DejaVuSans-2e" x="63.623047"/>
       <use xlink:href="#DejaVuSans-34" x="95.410156"/>
      </g>
     </g>
    </g>
    <g id="ytick_3">
     <g id="line2d_15">
      <path d="M 144 192.52964 
L 1036.8 192.52964 
" clip-path="url(#p9503e2a842)" style="fill: none; stroke: #b0b0b0; stroke-width: 0.8; stroke-linecap: square"/>
     </g>
     <g id="line2d_16">
      <g>
       <use xlink:href="#me8fb85775a" x="144" y="192.52964" style="stroke: #000000; stroke-width: 0.8"/>
      </g>
     </g>
     <g id="text_8">
      <!-- 0.6 -->
      <g transform="translate(121.096875 196.328859)scale(0.1 -0.1)">
       <defs>
        <path id="DejaVuSans-36" d="M 2113 2584 
Q 1688 2584 1439 2293 
Q 1191 2003 1191 1497 
Q 1191 994 1439 701 
Q 1688 409 2113 409 
Q 2538 409 2786 701 
Q 3034 994 3034 1497 
Q 3034 2003 2786 2293 
Q 2538 2584 2113 2584 
z
M 3366 4563 
L 3366 3988 
Q 3128 4100 2886 4159 
Q 2644 4219 2406 4219 
Q 1781 4219 1451 3797 
Q 1122 3375 1075 2522 
Q 1259 2794 1537 2939 
Q 1816 3084 2150 3084 
Q 2853 3084 3261 2657 
Q 3669 2231 3669 1497 
Q 3669 778 3244 343 
Q 2819 -91 2113 -91 
Q 1303 -91 875 529 
Q 447 1150 447 2328 
Q 447 3434 972 4092 
Q 1497 4750 2381 4750 
Q 2619 4750 2861 4703 
Q 3103 4656 3366 4563 
z
" transform="scale(0.015625)"/>
       </defs>
       <use xlink:href="#DejaVuSans-30"/>
       <use xlink:href="#DejaVuSans-2e" x="63.623047"/>
       <use xlink:href="#DejaVuSans-36" x="95.410156"/>
      </g>
     </g>
    </g>
    <g id="ytick_4">
     <g id="line2d_17">
      <path d="M 144 125.261669 
L 1036.8 125.261669 
" clip-path="url(#p9503e2a842)" style="fill: none; stroke: #b0b0b0; stroke-width: 0.8; stroke-linecap: square"/>
     </g>
     <g id="line2d_18">
      <g>
       <use xlink:href="#me8fb85775a" x="144" y="125.261669" style="stroke: #000000; stroke-width: 0.8"/>
      </g>
     </g>
     <g id="text_9">
      <!-- 0.8 -->
      <g transform="translate(121.096875 129.060888)scale(0.1 -0.1)">
       <use xlink:href="#DejaVuSans-30"/>
       <use xlink:href="#DejaVuSans-2e" x="63.623047"/>
       <use xlink:href="#DejaVuSans-38" x="95.410156"/>
      </g>
     </g>
    </g>
    <g id="ytick_5">
     <g id="line2d_19">
      <path d="M 144 57.993698 
L 1036.8 57.993698 
" clip-path="url(#p9503e2a842)" style="fill: none; stroke: #b0b0b0; stroke-width: 0.8; stroke-linecap: square"/>
     </g>
     <g id="line2d_20">
      <g>
       <use xlink:href="#me8fb85775a" x="144" y="57.993698" style="stroke: #000000; stroke-width: 0.8"/>
      </g>
     </g>
     <g id="text_10">
      <!-- 1.0 -->
      <g transform="translate(121.096875 61.792917)scale(0.1 -0.1)">
       <use xlink:href="#DejaVuSans-31"/>
       <use xlink:href="#DejaVuSans-2e" x="63.623047"/>
       <use xlink:href="#DejaVuSans-30" x="95.410156"/>
      </g>
     </g>
    </g>
    <g id="text_11">
     <!-- NDVI -->
     <g transform="translate(115.017187 230.558437)rotate(-90)scale(0.1 -0.1)">
      <defs>
       <path id="DejaVuSans-4e" d="M 628 4666 
L 1478 4666 
L 3547 763 
L 3547 4666 
L 4159 4666 
L 4159 0 
L 3309 0 
L 1241 3903 
L 1241 0 
L 628 0 
L 628 4666 
z
" transform="scale(0.015625)"/>
       <path id="DejaVuSans-44" d="M 1259 4147 
L 1259 519 
L 2022 519 
Q 2988 519 3436 956 
Q 3884 1394 3884 2338 
Q 3884 3275 3436 3711 
Q 2988 4147 2022 4147 
L 1259 4147 
z
M 628 4666 
L 1925 4666 
Q 3281 4666 3915 4102 
Q 4550 3538 4550 2338 
Q 4550 1131 3912 565 
Q 3275 0 1925 0 
L 628 0 
L 628 4666 
z
" transform="scale(0.015625)"/>
       <path id="DejaVuSans-56" d="M 1831 0 
L 50 4666 
L 709 4666 
L 2188 738 
L 3669 4666 
L 4325 4666 
L 2547 0 
L 1831 0 
z
" transform="scale(0.015625)"/>
       <path id="DejaVuSans-49" d="M 628 4666 
L 1259 4666 
L 1259 0 
L 628 0 
L 628 4666 
z
" transform="scale(0.015625)"/>
      </defs>
      <use xlink:href="#DejaVuSans-4e"/>
      <use xlink:href="#DejaVuSans-44" x="74.804688"/>
      <use xlink:href="#DejaVuSans-56" x="150.056641"/>
      <use xlink:href="#DejaVuSans-49" x="218.464844"/>
     </g>
    </g>
   </g>
   <g id="line2d_21">
    <defs>
     <path id="m8a6a8b64dc" d="M 0 3 
C 0.795609 3 1.55874 2.683901 2.12132 2.12132 
C 2.683901 1.55874 3 0.795609 3 0 
C 3 -0.795609 2.683901 -1.55874 2.12132 -2.12132 
C 1.55874 -2.683901 0.795609 -3 0 -3 
C -0.795609 -3 -1.55874 -2.683901 -2.12132 -2.12132 
C -2.683901 -1.55874 -3 -0.795609 -3 0 
C -3 0.795609 -2.683901 1.55874 -2.12132 2.12132 
C -1.55874 2.683901 -0.795609 3 0 3 
z
" style="stroke: #1f77b4"/>
    </defs>
    <g clip-path="url(#p9503e2a842)">
     <use xlink:href="#m8a6a8b64dc" x="184.581818" y="77.824503" style="fill: #1f77b4; stroke: #1f77b4"/>
     <use xlink:href="#m8a6a8b64dc" x="194.046965" y="136.676565" style="fill: #1f77b4; stroke: #1f77b4"/>
     <use xlink:href="#m8a6a8b64dc" x="203.512112" y="151.075903" style="fill: #1f77b4; stroke: #1f77b4"/>
     <use xlink:href="#m8a6a8b64dc" x="217.709833" y="344.701015" style="fill: #1f77b4; stroke: #1f77b4"/>
     <use xlink:href="#m8a6a8b64dc" x="222.442407" y="358.340561" style="fill: #1f77b4; stroke: #1f77b4"/>
     <use xlink:href="#m8a6a8b64dc" x="227.17498" y="369.36" style="fill: #1f77b4; stroke: #1f77b4"/>
     <use xlink:href="#m8a6a8b64dc" x="229.541267" y="354.505182" style="fill: #1f77b4; stroke: #1f77b4"/>
     <use xlink:href="#m8a6a8b64dc" x="231.907554" y="359.089212" style="fill: #1f77b4; stroke: #1f77b4"/>
     <use xlink:href="#m8a6a8b64dc" x="236.640127" y="354.907468" style="fill: #1f77b4; stroke: #1f77b4"/>
     <use xlink:href="#m8a6a8b64dc" x="239.006414" y="355.002408" style="fill: #1f77b4; stroke: #1f77b4"/>
     <use xlink:href="#m8a6a8b64dc" x="246.105274" y="357.964003" style="fill: #1f77b4; stroke: #1f77b4"/>
     <use xlink:href="#m8a6a8b64dc" x="250.837848" y="352.388748" style="fill: #1f77b4; stroke: #1f77b4"/>
     <use xlink:href="#m8a6a8b64dc" x="255.570421" y="342.998934" style="fill: #1f77b4; stroke: #1f77b4"/>
     <use xlink:href="#m8a6a8b64dc" x="260.302995" y="347.437462" style="fill: #1f77b4; stroke: #1f77b4"/>
     <use xlink:href="#m8a6a8b64dc" x="265.035569" y="351.619058" style="fill: #1f77b4; stroke: #1f77b4"/>
     <use xlink:href="#m8a6a8b64dc" x="267.401855" y="347.801223" style="fill: #1f77b4; stroke: #1f77b4"/>
     <use xlink:href="#m8a6a8b64dc" x="269.768142" y="337.465872" style="fill: #1f77b4; stroke: #1f77b4"/>
     <use xlink:href="#m8a6a8b64dc" x="272.134429" y="343.808839" style="fill: #1f77b4; stroke: #1f77b4"/>
     <use xlink:href="#m8a6a8b64dc" x="276.867002" y="340.570976" style="fill: #1f77b4; stroke: #1f77b4"/>
     <use xlink:href="#m8a6a8b64dc" x="279.233289" y="335.744139" style="fill: #1f77b4; stroke: #1f77b4"/>
     <use xlink:href="#m8a6a8b64dc" x="283.965863" y="307.858176" style="fill: #1f77b4; stroke: #1f77b4"/>
     <use xlink:href="#m8a6a8b64dc" x="288.698436" y="292.231064" style="fill: #1f77b4; stroke: #1f77b4"/>
     <use xlink:href="#m8a6a8b64dc" x="293.43101" y="259.164863" style="fill: #1f77b4; stroke: #1f77b4"/>
     <use xlink:href="#m8a6a8b64dc" x="305.262444" y="270.103877" style="fill: #1f77b4; stroke: #1f77b4"/>
     <use xlink:href="#m8a6a8b64dc" x="317.093878" y="211.963619" style="fill: #1f77b4; stroke: #1f77b4"/>
     <use xlink:href="#m8a6a8b64dc" x="321.826451" y="206.487406" style="fill: #1f77b4; stroke: #1f77b4"/>
     <use xlink:href="#m8a6a8b64dc" x="331.291598" y="221.718171" style="fill: #1f77b4; stroke: #1f77b4"/>
     <use xlink:href="#m8a6a8b64dc" x="336.024172" y="241.908216" style="fill: #1f77b4; stroke: #1f77b4"/>
     <use xlink:href="#m8a6a8b64dc" x="359.687039" y="160.953246" style="fill: #1f77b4; stroke: #1f77b4"/>
     <use xlink:href="#m8a6a8b64dc" x="364.419613" y="189.818059" style="fill: #1f77b4; stroke: #1f77b4"/>
     <use xlink:href="#m8a6a8b64dc" x="369.152187" y="208.633122" style="fill: #1f77b4; stroke: #1f77b4"/>
     <use xlink:href="#m8a6a8b64dc" x="373.88476" y="165.980496" style="fill: #1f77b4; stroke: #1f77b4"/>
     <use xlink:href="#m8a6a8b64dc" x="376.251047" y="175.864234" style="fill: #1f77b4; stroke: #1f77b4"/>
     <use xlink:href="#m8a6a8b64dc" x="388.082481" y="165.024776" style="fill: #1f77b4; stroke: #1f77b4"/>
     <use xlink:href="#m8a6a8b64dc" x="392.815054" y="235.471782" style="fill: #1f77b4; stroke: #1f77b4"/>
     <use xlink:href="#m8a6a8b64dc" x="397.547628" y="284.394438" style="fill: #1f77b4; stroke: #1f77b4"/>
     <use xlink:href="#m8a6a8b64dc" x="407.012775" y="317.628436" style="fill: #1f77b4; stroke: #1f77b4"/>
     <use xlink:href="#m8a6a8b64dc" x="409.379062" y="334.185387" style="fill: #1f77b4; stroke: #1f77b4"/>
     <use xlink:href="#m8a6a8b64dc" x="411.745349" y="340.387211" style="fill: #1f77b4; stroke: #1f77b4"/>
     <use xlink:href="#m8a6a8b64dc" x="414.111635" y="342.398609" style="fill: #1f77b4; stroke: #1f77b4"/>
     <use xlink:href="#m8a6a8b64dc" x="416.477922" y="342.665164" style="fill: #1f77b4; stroke: #1f77b4"/>
     <use xlink:href="#m8a6a8b64dc" x="418.844209" y="345.558723" style="fill: #1f77b4; stroke: #1f77b4"/>
     <use xlink:href="#m8a6a8b64dc" x="428.309356" y="346.300297" style="fill: #1f77b4; stroke: #1f77b4"/>
     <use xlink:href="#m8a6a8b64dc" x="430.675643" y="349.40899" style="fill: #1f77b4; stroke: #1f77b4"/>
     <use xlink:href="#m8a6a8b64dc" x="433.041929" y="349.097443" style="fill: #1f77b4; stroke: #1f77b4"/>
     <use xlink:href="#m8a6a8b64dc" x="435.408216" y="350.03448" style="fill: #1f77b4; stroke: #1f77b4"/>
     <use xlink:href="#m8a6a8b64dc" x="437.774503" y="348.284646" style="fill: #1f77b4; stroke: #1f77b4"/>
     <use xlink:href="#m8a6a8b64dc" x="440.14079" y="343.720501" style="fill: #1f77b4; stroke: #1f77b4"/>
     <use xlink:href="#m8a6a8b64dc" x="442.507077" y="347.016752" style="fill: #1f77b4; stroke: #1f77b4"/>
     <use xlink:href="#m8a6a8b64dc" x="449.605937" y="344.944476" style="fill: #1f77b4; stroke: #1f77b4"/>
     <use xlink:href="#m8a6a8b64dc" x="451.972224" y="343.196461" style="fill: #1f77b4; stroke: #1f77b4"/>
     <use xlink:href="#m8a6a8b64dc" x="454.33851" y="347.095293" style="fill: #1f77b4; stroke: #1f77b4"/>
     <use xlink:href="#m8a6a8b64dc" x="456.704797" y="337.082089" style="fill: #1f77b4; stroke: #1f77b4"/>
     <use xlink:href="#m8a6a8b64dc" x="480.367665" y="316.160559" style="fill: #1f77b4; stroke: #1f77b4"/>
     <use xlink:href="#m8a6a8b64dc" x="485.100239" y="314.657734" style="fill: #1f77b4; stroke: #1f77b4"/>
     <use xlink:href="#m8a6a8b64dc" x="494.565386" y="316.113718" style="fill: #1f77b4; stroke: #1f77b4"/>
     <use xlink:href="#m8a6a8b64dc" x="501.664246" y="317.824625" style="fill: #1f77b4; stroke: #1f77b4"/>
     <use xlink:href="#m8a6a8b64dc" x="506.39682" y="311.719369" style="fill: #1f77b4; stroke: #1f77b4"/>
     <use xlink:href="#m8a6a8b64dc" x="508.763106" y="309.42843" style="fill: #1f77b4; stroke: #1f77b4"/>
     <use xlink:href="#m8a6a8b64dc" x="515.861967" y="270.346551" style="fill: #1f77b4; stroke: #1f77b4"/>
     <use xlink:href="#m8a6a8b64dc" x="518.228253" y="246.651045" style="fill: #1f77b4; stroke: #1f77b4"/>
     <use xlink:href="#m8a6a8b64dc" x="520.59454" y="230.077664" style="fill: #1f77b4; stroke: #1f77b4"/>
     <use xlink:href="#m8a6a8b64dc" x="522.960827" y="207.446936" style="fill: #1f77b4; stroke: #1f77b4"/>
     <use xlink:href="#m8a6a8b64dc" x="527.6934" y="147.845322" style="fill: #1f77b4; stroke: #1f77b4"/>
     <use xlink:href="#m8a6a8b64dc" x="530.059687" y="128.763969" style="fill: #1f77b4; stroke: #1f77b4"/>
     <use xlink:href="#m8a6a8b64dc" x="537.158548" y="89.874184" style="fill: #1f77b4; stroke: #1f77b4"/>
     <use xlink:href="#m8a6a8b64dc" x="539.524834" y="88.635695" style="fill: #1f77b4; stroke: #1f77b4"/>
     <use xlink:href="#m8a6a8b64dc" x="551.356268" y="79.570673" style="fill: #1f77b4; stroke: #1f77b4"/>
     <use xlink:href="#m8a6a8b64dc" x="553.722555" y="90.380141" style="fill: #1f77b4; stroke: #1f77b4"/>
     <use xlink:href="#m8a6a8b64dc" x="565.553989" y="174.536333" style="fill: #1f77b4; stroke: #1f77b4"/>
     <use xlink:href="#m8a6a8b64dc" x="567.920276" y="228.690503" style="fill: #1f77b4; stroke: #1f77b4"/>
     <use xlink:href="#m8a6a8b64dc" x="572.652849" y="264.714981" style="fill: #1f77b4; stroke: #1f77b4"/>
     <use xlink:href="#m8a6a8b64dc" x="575.019136" y="295.247047" style="fill: #1f77b4; stroke: #1f77b4"/>
     <use xlink:href="#m8a6a8b64dc" x="577.385423" y="306.967259" style="fill: #1f77b4; stroke: #1f77b4"/>
     <use xlink:href="#m8a6a8b64dc" x="579.75171" y="313.599882" style="fill: #1f77b4; stroke: #1f77b4"/>
     <use xlink:href="#m8a6a8b64dc" x="584.484283" y="326.152317" style="fill: #1f77b4; stroke: #1f77b4"/>
     <use xlink:href="#m8a6a8b64dc" x="589.216857" y="331.887377" style="fill: #1f77b4; stroke: #1f77b4"/>
     <use xlink:href="#m8a6a8b64dc" x="591.583143" y="329.491219" style="fill: #1f77b4; stroke: #1f77b4"/>
     <use xlink:href="#m8a6a8b64dc" x="596.315717" y="336.446014" style="fill: #1f77b4; stroke: #1f77b4"/>
     <use xlink:href="#m8a6a8b64dc" x="598.682004" y="331.855692" style="fill: #1f77b4; stroke: #1f77b4"/>
     <use xlink:href="#m8a6a8b64dc" x="605.780864" y="342.906816" style="fill: #1f77b4; stroke: #1f77b4"/>
     <use xlink:href="#m8a6a8b64dc" x="610.513438" y="311.109261" style="fill: #1f77b4; stroke: #1f77b4"/>
     <use xlink:href="#m8a6a8b64dc" x="615.246011" y="334.345541" style="fill: #1f77b4; stroke: #1f77b4"/>
     <use xlink:href="#m8a6a8b64dc" x="624.711158" y="304.664522" style="fill: #1f77b4; stroke: #1f77b4"/>
     <use xlink:href="#m8a6a8b64dc" x="634.176305" y="240.669065" style="fill: #1f77b4; stroke: #1f77b4"/>
     <use xlink:href="#m8a6a8b64dc" x="636.542592" y="224.944382" style="fill: #1f77b4; stroke: #1f77b4"/>
     <use xlink:href="#m8a6a8b64dc" x="648.374026" y="160.685693" style="fill: #1f77b4; stroke: #1f77b4"/>
     <use xlink:href="#m8a6a8b64dc" x="653.1066" y="132.885498" style="fill: #1f77b4; stroke: #1f77b4"/>
     <use xlink:href="#m8a6a8b64dc" x="660.20546" y="124.746366" style="fill: #1f77b4; stroke: #1f77b4"/>
     <use xlink:href="#m8a6a8b64dc" x="664.938033" y="188.771343" style="fill: #1f77b4; stroke: #1f77b4"/>
     <use xlink:href="#m8a6a8b64dc" x="672.036894" y="116.98579" style="fill: #1f77b4; stroke: #1f77b4"/>
     <use xlink:href="#m8a6a8b64dc" x="679.135754" y="94.206331" style="fill: #1f77b4; stroke: #1f77b4"/>
     <use xlink:href="#m8a6a8b64dc" x="681.502041" y="88.815821" style="fill: #1f77b4; stroke: #1f77b4"/>
     <use xlink:href="#m8a6a8b64dc" x="683.868328" y="90.308511" style="fill: #1f77b4; stroke: #1f77b4"/>
     <use xlink:href="#m8a6a8b64dc" x="695.699761" y="88.639724" style="fill: #1f77b4; stroke: #1f77b4"/>
     <use xlink:href="#m8a6a8b64dc" x="721.728916" y="158.851354" style="fill: #1f77b4; stroke: #1f77b4"/>
     <use xlink:href="#m8a6a8b64dc" x="724.095203" y="255.373315" style="fill: #1f77b4; stroke: #1f77b4"/>
     <use xlink:href="#m8a6a8b64dc" x="728.827776" y="312.44474" style="fill: #1f77b4; stroke: #1f77b4"/>
     <use xlink:href="#m8a6a8b64dc" x="731.194063" y="313.255698" style="fill: #1f77b4; stroke: #1f77b4"/>
     <use xlink:href="#m8a6a8b64dc" x="735.926637" y="320.146176" style="fill: #1f77b4; stroke: #1f77b4"/>
     <use xlink:href="#m8a6a8b64dc" x="740.65921" y="324.352445" style="fill: #1f77b4; stroke: #1f77b4"/>
     <use xlink:href="#m8a6a8b64dc" x="743.025497" y="326.239593" style="fill: #1f77b4; stroke: #1f77b4"/>
     <use xlink:href="#m8a6a8b64dc" x="745.391784" y="320.664677" style="fill: #1f77b4; stroke: #1f77b4"/>
     <use xlink:href="#m8a6a8b64dc" x="747.758071" y="325.331521" style="fill: #1f77b4; stroke: #1f77b4"/>
     <use xlink:href="#m8a6a8b64dc" x="750.124357" y="326.320841" style="fill: #1f77b4; stroke: #1f77b4"/>
     <use xlink:href="#m8a6a8b64dc" x="752.490644" y="327.087689" style="fill: #1f77b4; stroke: #1f77b4"/>
     <use xlink:href="#m8a6a8b64dc" x="754.856931" y="329.974628" style="fill: #1f77b4; stroke: #1f77b4"/>
     <use xlink:href="#m8a6a8b64dc" x="757.223218" y="327.15557" style="fill: #1f77b4; stroke: #1f77b4"/>
     <use xlink:href="#m8a6a8b64dc" x="759.589504" y="324.540971" style="fill: #1f77b4; stroke: #1f77b4"/>
     <use xlink:href="#m8a6a8b64dc" x="761.955791" y="326.75165" style="fill: #1f77b4; stroke: #1f77b4"/>
     <use xlink:href="#m8a6a8b64dc" x="764.322078" y="323.313487" style="fill: #1f77b4; stroke: #1f77b4"/>
     <use xlink:href="#m8a6a8b64dc" x="766.688365" y="329.592594" style="fill: #1f77b4; stroke: #1f77b4"/>
     <use xlink:href="#m8a6a8b64dc" x="769.054651" y="331.573986" style="fill: #1f77b4; stroke: #1f77b4"/>
     <use xlink:href="#m8a6a8b64dc" x="771.420938" y="330.087725" style="fill: #1f77b4; stroke: #1f77b4"/>
     <use xlink:href="#m8a6a8b64dc" x="773.787225" y="327.863309" style="fill: #1f77b4; stroke: #1f77b4"/>
     <use xlink:href="#m8a6a8b64dc" x="776.153512" y="335.21397" style="fill: #1f77b4; stroke: #1f77b4"/>
     <use xlink:href="#m8a6a8b64dc" x="783.252372" y="325.270697" style="fill: #1f77b4; stroke: #1f77b4"/>
     <use xlink:href="#m8a6a8b64dc" x="790.351232" y="321.033058" style="fill: #1f77b4; stroke: #1f77b4"/>
     <use xlink:href="#m8a6a8b64dc" x="799.81638" y="321.918999" style="fill: #1f77b4; stroke: #1f77b4"/>
     <use xlink:href="#m8a6a8b64dc" x="806.91524" y="327.319192" style="fill: #1f77b4; stroke: #1f77b4"/>
     <use xlink:href="#m8a6a8b64dc" x="809.281527" y="329.350005" style="fill: #1f77b4; stroke: #1f77b4"/>
     <use xlink:href="#m8a6a8b64dc" x="818.746674" y="323.707975" style="fill: #1f77b4; stroke: #1f77b4"/>
     <use xlink:href="#m8a6a8b64dc" x="830.578108" y="316.674354" style="fill: #1f77b4; stroke: #1f77b4"/>
     <use xlink:href="#m8a6a8b64dc" x="858.973549" y="329.861861" style="fill: #1f77b4; stroke: #1f77b4"/>
     <use xlink:href="#m8a6a8b64dc" x="861.339836" y="325.609879" style="fill: #1f77b4; stroke: #1f77b4"/>
     <use xlink:href="#m8a6a8b64dc" x="863.706122" y="327.700133" style="fill: #1f77b4; stroke: #1f77b4"/>
     <use xlink:href="#m8a6a8b64dc" x="866.072409" y="336.976479" style="fill: #1f77b4; stroke: #1f77b4"/>
     <use xlink:href="#m8a6a8b64dc" x="868.438696" y="329.742885" style="fill: #1f77b4; stroke: #1f77b4"/>
     <use xlink:href="#m8a6a8b64dc" x="873.17127" y="339.724584" style="fill: #1f77b4; stroke: #1f77b4"/>
     <use xlink:href="#m8a6a8b64dc" x="877.903843" y="337.477439" style="fill: #1f77b4; stroke: #1f77b4"/>
     <use xlink:href="#m8a6a8b64dc" x="894.467851" y="224.291137" style="fill: #1f77b4; stroke: #1f77b4"/>
     <use xlink:href="#m8a6a8b64dc" x="899.200424" y="210.602219" style="fill: #1f77b4; stroke: #1f77b4"/>
     <use xlink:href="#m8a6a8b64dc" x="901.566711" y="173.993048" style="fill: #1f77b4; stroke: #1f77b4"/>
     <use xlink:href="#m8a6a8b64dc" x="903.932998" y="173.180286" style="fill: #1f77b4; stroke: #1f77b4"/>
     <use xlink:href="#m8a6a8b64dc" x="906.299284" y="145.221957" style="fill: #1f77b4; stroke: #1f77b4"/>
     <use xlink:href="#m8a6a8b64dc" x="911.031858" y="114.243083" style="fill: #1f77b4; stroke: #1f77b4"/>
     <use xlink:href="#m8a6a8b64dc" x="913.398145" y="101.429856" style="fill: #1f77b4; stroke: #1f77b4"/>
     <use xlink:href="#m8a6a8b64dc" x="915.764431" y="94.7684" style="fill: #1f77b4; stroke: #1f77b4"/>
     <use xlink:href="#m8a6a8b64dc" x="918.130718" y="88.480227" style="fill: #1f77b4; stroke: #1f77b4"/>
     <use xlink:href="#m8a6a8b64dc" x="920.497005" y="92.981253" style="fill: #1f77b4; stroke: #1f77b4"/>
     <use xlink:href="#m8a6a8b64dc" x="922.863292" y="91.975354" style="fill: #1f77b4; stroke: #1f77b4"/>
     <use xlink:href="#m8a6a8b64dc" x="925.229579" y="98.40011" style="fill: #1f77b4; stroke: #1f77b4"/>
     <use xlink:href="#m8a6a8b64dc" x="927.595865" y="91.540565" style="fill: #1f77b4; stroke: #1f77b4"/>
     <use xlink:href="#m8a6a8b64dc" x="937.061012" y="91.417695" style="fill: #1f77b4; stroke: #1f77b4"/>
     <use xlink:href="#m8a6a8b64dc" x="939.427299" y="111.118954" style="fill: #1f77b4; stroke: #1f77b4"/>
     <use xlink:href="#m8a6a8b64dc" x="941.793586" y="103.711232" style="fill: #1f77b4; stroke: #1f77b4"/>
     <use xlink:href="#m8a6a8b64dc" x="951.258733" y="89.315463" style="fill: #1f77b4; stroke: #1f77b4"/>
     <use xlink:href="#m8a6a8b64dc" x="953.62502" y="93.147386" style="fill: #1f77b4; stroke: #1f77b4"/>
     <use xlink:href="#m8a6a8b64dc" x="960.72388" y="97.492363" style="fill: #1f77b4; stroke: #1f77b4"/>
     <use xlink:href="#m8a6a8b64dc" x="963.090167" y="98.599041" style="fill: #1f77b4; stroke: #1f77b4"/>
     <use xlink:href="#m8a6a8b64dc" x="967.822741" y="105.009944" style="fill: #1f77b4; stroke: #1f77b4"/>
     <use xlink:href="#m8a6a8b64dc" x="970.189027" y="130.857521" style="fill: #1f77b4; stroke: #1f77b4"/>
     <use xlink:href="#m8a6a8b64dc" x="977.287888" y="134.609556" style="fill: #1f77b4; stroke: #1f77b4"/>
     <use xlink:href="#m8a6a8b64dc" x="986.753035" y="118.567712" style="fill: #1f77b4; stroke: #1f77b4"/>
     <use xlink:href="#m8a6a8b64dc" x="993.851895" y="294.147206" style="fill: #1f77b4; stroke: #1f77b4"/>
    </g>
   </g>
   <g id="line2d_22">
    <path d="M 184.581818 78.922368 
L 194.046965 132.174362 
L 203.512112 157.476479 
L 212.977259 282.168785 
L 217.709833 338.803182 
L 222.442407 361.411326 
L 227.17498 364.210983 
L 229.541267 360.583811 
L 231.907554 357.857364 
L 236.640127 355.292464 
L 239.006414 355.463306 
L 243.738988 357.011769 
L 246.105274 356.6995 
L 248.471561 354.727751 
L 250.837848 351.533215 
L 253.204135 347.97659 
L 255.570421 345.64578 
L 260.302995 347.330347 
L 265.035569 348.734563 
L 267.401855 346.303023 
L 269.768142 343.415504 
L 272.134429 342.645151 
L 274.500716 342.040303 
L 276.867002 339.448504 
L 279.233289 333.174532 
L 283.965863 311.079934 
L 288.698436 287.539326 
L 293.43101 264.955461 
L 305.262444 266.232603 
L 317.093878 214.228326 
L 321.826451 206.331881 
L 328.925311 216.99103 
L 331.291598 224.431355 
L 333.657885 232.434726 
L 336.024172 237.649526 
L 359.687039 166.562594 
L 364.419613 188.657522 
L 369.152187 198.439815 
L 371.518473 189.704542 
L 373.88476 177.758312 
L 376.251047 168.855289 
L 378.617334 160.640288 
L 388.082481 173.615436 
L 392.815054 230.510497 
L 397.547628 280.991971 
L 402.280201 307.38319 
L 407.012775 322.990133 
L 409.379062 331.589677 
L 411.745349 338.40519 
L 414.111635 342.221456 
L 416.477922 344.062551 
L 418.844209 345.220056 
L 421.210496 345.900939 
L 423.576782 346.320558 
L 428.309356 347.508368 
L 430.675643 348.601129 
L 433.041929 349.216474 
L 435.408216 348.951857 
L 440.14079 346.297243 
L 442.507077 345.903761 
L 449.605937 345.195099 
L 451.972224 344.548015 
L 454.33851 342.98927 
L 456.704797 339.519037 
L 480.367665 316.085287 
L 482.733952 315.261243 
L 485.100239 314.784799 
L 487.466525 314.719634 
L 494.565386 316.446884 
L 499.297959 317.953544 
L 501.664246 317.727972 
L 506.39682 313.047511 
L 508.763106 307.576898 
L 511.129393 298.419399 
L 515.861967 269.088248 
L 518.228253 249.743967 
L 520.59454 228.452209 
L 522.960827 204.15223 
L 527.6934 151.09819 
L 530.059687 129.326176 
L 534.792261 100.130228 
L 537.158548 91.572609 
L 539.524834 85.871456 
L 551.356268 81.06488 
L 553.722555 88.956139 
L 558.455129 114.442276 
L 565.553989 184.828248 
L 567.920276 217.292787 
L 570.286562 245.738187 
L 572.652849 269.888607 
L 575.019136 290.713021 
L 577.385423 305.689626 
L 579.75171 315.371344 
L 584.484283 326.36559 
L 586.85057 329.163584 
L 589.216857 330.706553 
L 591.583143 331.550986 
L 596.315717 334.222536 
L 598.682004 335.349589 
L 605.780864 335.004454 
L 610.513438 322.791171 
L 615.246011 328.22247 
L 624.711158 304.375028 
L 629.443732 274.479268 
L 634.176305 241.184239 
L 636.542592 225.471194 
L 641.275166 197.29947 
L 648.374026 158.040776 
L 653.1066 133.826485 
L 660.20546 138.932386 
L 662.571747 156.47478 
L 664.938033 168.544003 
L 672.036894 125.383729 
L 679.135754 93.321903 
L 681.502041 90.159168 
L 683.868328 89.518041 
L 693.333475 90.027547 
L 695.699761 86.870266 
L 698.066048 81.194988 
L 702.798622 66.96 
L 721.728916 181.706357 
L 724.095203 234.434715 
L 728.827776 304.56339 
L 731.194063 317.426868 
L 735.926637 323.310411 
L 738.292923 323.881924 
L 740.65921 324.239911 
L 743.025497 324.126613 
L 745.391784 323.802525 
L 747.758071 324.719111 
L 750.124357 326.205743 
L 752.490644 327.507792 
L 754.856931 328.006922 
L 757.223218 327.144271 
L 759.589504 325.951769 
L 761.955791 325.582327 
L 764.322078 326.225807 
L 766.688365 328.201366 
L 769.054651 329.864804 
L 776.153512 331.876748 
L 783.252372 326.054304 
L 785.618659 323.809175 
L 790.351232 321.021226 
L 799.81638 322.247128 
L 806.91524 327.526917 
L 809.281527 328.559256 
L 818.746674 323.882024 
L 828.211821 317.508332 
L 830.578108 316.836245 
L 844.775828 321.733002 
L 858.973549 327.855355 
L 861.339836 327.994768 
L 863.706122 329.552563 
L 866.072409 332.069852 
L 868.438696 334.017528 
L 873.17127 339.216363 
L 877.903843 335.331955 
L 887.36899 279.751455 
L 894.467851 228.660852 
L 899.200424 201.304635 
L 903.932998 166.230029 
L 906.299284 147.545214 
L 911.031858 114.321111 
L 913.398145 102.344228 
L 915.764431 94.596359 
L 918.130718 91.110967 
L 920.497005 91.358729 
L 922.863292 92.933107 
L 925.229579 94.089008 
L 929.962152 92.745759 
L 932.328439 92.917922 
L 937.061012 98.186933 
L 939.427299 103.071704 
L 941.793586 104.268299 
L 944.159873 102.224253 
L 951.258733 92.037427 
L 953.62502 91.652751 
L 958.357593 93.905114 
L 960.72388 96.119035 
L 963.090167 99.249988 
L 967.822741 112.983188 
L 970.189027 123.802738 
L 977.287888 128.383582 
L 986.753035 130.903265 
L 991.485608 224.90344 
L 996.218182 351.951366 
L 996.218182 351.951366 
" clip-path="url(#p9503e2a842)" style="fill: none; stroke: #ff7f0e; stroke-width: 1.5; stroke-linecap: square"/>
   </g>
   <g id="line2d_23">
    <path d="M 184.581818 70.618112 
L 194.046965 133.432443 
L 203.512112 202.443356 
L 212.977259 278.747921 
L 217.709833 311.96804 
L 222.442407 336.984551 
L 227.17498 352.79134 
L 229.541267 357.553711 
L 231.907554 360.620521 
L 236.640127 362.995089 
L 239.006414 362.918757 
L 243.738988 361.308762 
L 246.105274 360.019856 
L 250.837848 357.012609 
L 255.570421 353.959207 
L 260.302995 351.002817 
L 265.035569 347.417149 
L 267.401855 345.042285 
L 269.768142 342.131034 
L 272.134429 338.604951 
L 274.500716 334.361867 
L 276.867002 329.334511 
L 279.233289 323.488497 
L 283.965863 309.80967 
L 288.698436 294.962819 
L 293.43101 280.634245 
L 305.262444 251.053545 
L 317.093878 227.594684 
L 321.826451 222.424806 
L 328.925311 218.84947 
L 331.291598 217.891029 
L 333.657885 216.645922 
L 336.024172 214.90774 
L 359.687039 182.909182 
L 364.419613 180.055331 
L 369.152187 179.059704 
L 371.518473 179.223305 
L 373.88476 180.139866 
L 376.251047 182.137072 
L 378.617334 185.409709 
L 388.082481 213.392036 
L 392.815054 236.928625 
L 397.547628 263.573185 
L 402.280201 289.515704 
L 407.012775 312.317156 
L 409.379062 321.895767 
L 411.745349 329.994279 
L 414.111635 336.566975 
L 416.477922 341.692719 
L 418.844209 345.522678 
L 421.210496 348.228019 
L 423.576782 349.982159 
L 428.309356 351.330796 
L 430.675643 351.262212 
L 433.041929 350.8698 
L 435.408216 350.241165 
L 440.14079 348.541284 
L 442.507077 347.57172 
L 449.605937 344.172518 
L 451.972224 342.815294 
L 456.704797 339.704768 
L 480.367665 325.245979 
L 482.733952 324.725655 
L 487.466525 324.178141 
L 494.565386 322.209281 
L 499.297959 317.710259 
L 501.664246 313.742707 
L 506.39682 301.054916 
L 508.763106 291.896306 
L 511.129393 280.714346 
L 515.861967 252.681941 
L 518.228253 236.120203 
L 522.960827 199.549096 
L 527.6934 162.233072 
L 530.059687 145.023496 
L 534.792261 116.199687 
L 537.158548 105.303226 
L 539.524834 97.176372 
L 551.356268 101.57023 
L 553.722555 111.728747 
L 558.455129 140.261337 
L 565.553989 196.329899 
L 570.286562 236.400263 
L 572.652849 255.330142 
L 575.019136 272.708311 
L 577.385423 288.059266 
L 579.75171 301.155667 
L 584.484283 320.741773 
L 586.85057 327.561061 
L 589.216857 332.687356 
L 591.583143 336.358514 
L 596.315717 340.144733 
L 598.682004 340.553363 
L 605.780864 336.644896 
L 610.513438 329.794035 
L 615.246011 319.676403 
L 624.711158 287.184706 
L 629.443732 265.124842 
L 641.275166 204.646972 
L 648.374026 173.220268 
L 653.1066 157.244295 
L 660.20546 140.67286 
L 664.938033 131.485693 
L 672.036894 115.116125 
L 679.135754 99.853727 
L 681.502041 96.216608 
L 683.868328 93.667368 
L 693.333475 96.097903 
L 695.699761 100.171048 
L 698.066048 105.728103 
L 702.798622 121.028105 
L 721.728916 225.75558 
L 724.095203 242.227551 
L 728.827776 273.465085 
L 731.194063 286.770841 
L 735.926637 307.207703 
L 738.292923 314.436854 
L 740.65921 319.901054 
L 743.025497 323.833507 
L 745.391784 326.510063 
L 747.758071 328.224237 
L 750.124357 329.218884 
L 752.490644 329.694786 
L 754.856931 329.817091 
L 759.589504 329.541921 
L 764.322078 329.251423 
L 771.420938 328.993457 
L 773.787225 328.772555 
L 776.153512 328.434975 
L 790.351232 325.303345 
L 799.81638 324.686514 
L 806.91524 324.746082 
L 809.281527 324.645187 
L 818.746674 323.491413 
L 828.211821 322.971157 
L 830.578108 323.247328 
L 858.973549 333.95212 
L 861.339836 334.233642 
L 863.706122 334.164669 
L 866.072409 333.549999 
L 868.438696 332.129088 
L 873.17127 325.858618 
L 877.903843 313.475975 
L 887.36899 269.872003 
L 894.467851 226.481718 
L 903.932998 164.899345 
L 906.299284 150.481489 
L 911.031858 125.19593 
L 913.398145 114.976061 
L 915.764431 106.661547 
L 918.130718 100.279068 
L 920.497005 95.703519 
L 922.863292 92.680277 
L 925.229579 90.90657 
L 927.595865 90.083178 
L 929.962152 89.97608 
L 932.328439 90.378632 
L 939.427299 92.605916 
L 941.793586 93.039822 
L 944.159873 93.205479 
L 951.258733 93.515632 
L 953.62502 94.065258 
L 958.357593 96.551761 
L 960.72388 98.672673 
L 963.090167 101.497795 
L 967.822741 109.525302 
L 970.189027 114.804674 
L 977.287888 136.55725 
L 986.753035 185.758923 
L 991.485608 220.849506 
L 996.218182 258.768505 
L 996.218182 258.768505 
" clip-path="url(#p9503e2a842)" style="fill: none; stroke: #2ca02c; stroke-width: 1.5; stroke-linecap: square"/>
   </g>
   <g id="patch_3">
    <path d="M 144 384.48 
L 144 51.84 
" style="fill: none; stroke: #000000; stroke-width: 0.8; stroke-linejoin: miter; stroke-linecap: square"/>
   </g>
   <g id="patch_4">
    <path d="M 1036.8 384.48 
L 1036.8 51.84 
" style="fill: none; stroke: #000000; stroke-width: 0.8; stroke-linejoin: miter; stroke-linecap: square"/>
   </g>
   <g id="patch_5">
    <path d="M 144 384.48 
L 1036.8 384.48 
" style="fill: none; stroke: #000000; stroke-width: 0.8; stroke-linejoin: miter; stroke-linecap: square"/>
   </g>
   <g id="patch_6">
    <path d="M 144 51.84 
L 1036.8 51.84 
" style="fill: none; stroke: #000000; stroke-width: 0.8; stroke-linejoin: miter; stroke-linecap: square"/>
   </g>
   <g id="legend_1">
    <g id="patch_7">
     <path d="M 151 103.874375 
L 356.370313 103.874375 
Q 358.370313 103.874375 358.370313 101.874375 
L 358.370313 58.84 
Q 358.370313 56.84 356.370313 56.84 
L 151 56.84 
Q 149 56.84 149 58.84 
L 149 101.874375 
Q 149 103.874375 151 103.874375 
z
" style="fill: #ffffff; opacity: 0.8; stroke: #cccccc; stroke-linejoin: miter"/>
    </g>
    <g id="line2d_24">
     <g>
      <use xlink:href="#m8a6a8b64dc" x="163" y="64.938437" style="fill: #1f77b4; stroke: #1f77b4"/>
     </g>
    </g>
    <g id="text_12">
     <!-- S2 NDVI -->
     <g transform="translate(181 68.438437)scale(0.1 -0.1)">
      <defs>
       <path id="DejaVuSans-53" d="M 3425 4513 
L 3425 3897 
Q 3066 4069 2747 4153 
Q 2428 4238 2131 4238 
Q 1616 4238 1336 4038 
Q 1056 3838 1056 3469 
Q 1056 3159 1242 3001 
Q 1428 2844 1947 2747 
L 2328 2669 
Q 3034 2534 3370 2195 
Q 3706 1856 3706 1288 
Q 3706 609 3251 259 
Q 2797 -91 1919 -91 
Q 1588 -91 1214 -16 
Q 841 59 441 206 
L 441 856 
Q 825 641 1194 531 
Q 1563 422 1919 422 
Q 2459 422 2753 634 
Q 3047 847 3047 1241 
Q 3047 1584 2836 1778 
Q 2625 1972 2144 2069 
L 1759 2144 
Q 1053 2284 737 2584 
Q 422 2884 422 3419 
Q 422 4038 858 4394 
Q 1294 4750 2059 4750 
Q 2388 4750 2728 4690 
Q 3069 4631 3425 4513 
z
" transform="scale(0.015625)"/>
       <path id="DejaVuSans-20" transform="scale(0.015625)"/>
      </defs>
      <use xlink:href="#DejaVuSans-53"/>
      <use xlink:href="#DejaVuSans-32" x="63.476562"/>
      <use xlink:href="#DejaVuSans-20" x="127.099609"/>
      <use xlink:href="#DejaVuSans-4e" x="158.886719"/>
      <use xlink:href="#DejaVuSans-44" x="233.691406"/>
      <use xlink:href="#DejaVuSans-56" x="308.943359"/>
      <use xlink:href="#DejaVuSans-49" x="377.351562"/>
     </g>
    </g>
    <g id="line2d_25">
     <path d="M 153 79.616562 
L 163 79.616562 
L 173 79.616562 
" style="fill: none; stroke: #ff7f0e; stroke-width: 1.5; stroke-linecap: square"/>
    </g>
    <g id="text_13">
     <!-- Whittaker S2 NDVI lambda=100 -->
     <g transform="translate(181 83.116562)scale(0.1 -0.1)">
      <defs>
       <path id="DejaVuSans-57" d="M 213 4666 
L 850 4666 
L 1831 722 
L 2809 4666 
L 3519 4666 
L 4500 722 
L 5478 4666 
L 6119 4666 
L 4947 0 
L 4153 0 
L 3169 4050 
L 2175 0 
L 1381 0 
L 213 4666 
z
" transform="scale(0.015625)"/>
       <path id="DejaVuSans-68" d="M 3513 2113 
L 3513 0 
L 2938 0 
L 2938 2094 
Q 2938 2591 2744 2837 
Q 2550 3084 2163 3084 
Q 1697 3084 1428 2787 
Q 1159 2491 1159 1978 
L 1159 0 
L 581 0 
L 581 4863 
L 1159 4863 
L 1159 2956 
Q 1366 3272 1645 3428 
Q 1925 3584 2291 3584 
Q 2894 3584 3203 3211 
Q 3513 2838 3513 2113 
z
" transform="scale(0.015625)"/>
       <path id="DejaVuSans-69" d="M 603 3500 
L 1178 3500 
L 1178 0 
L 603 0 
L 603 3500 
z
M 603 4863 
L 1178 4863 
L 1178 4134 
L 603 4134 
L 603 4863 
z
" transform="scale(0.015625)"/>
       <path id="DejaVuSans-74" d="M 1172 4494 
L 1172 3500 
L 2356 3500 
L 2356 3053 
L 1172 3053 
L 1172 1153 
Q 1172 725 1289 603 
Q 1406 481 1766 481 
L 2356 481 
L 2356 0 
L 1766 0 
Q 1100 0 847 248 
Q 594 497 594 1153 
L 594 3053 
L 172 3053 
L 172 3500 
L 594 3500 
L 594 4494 
L 1172 4494 
z
" transform="scale(0.015625)"/>
       <path id="DejaVuSans-61" d="M 2194 1759 
Q 1497 1759 1228 1600 
Q 959 1441 959 1056 
Q 959 750 1161 570 
Q 1363 391 1709 391 
Q 2188 391 2477 730 
Q 2766 1069 2766 1631 
L 2766 1759 
L 2194 1759 
z
M 3341 1997 
L 3341 0 
L 2766 0 
L 2766 531 
Q 2569 213 2275 61 
Q 1981 -91 1556 -91 
Q 1019 -91 701 211 
Q 384 513 384 1019 
Q 384 1609 779 1909 
Q 1175 2209 1959 2209 
L 2766 2209 
L 2766 2266 
Q 2766 2663 2505 2880 
Q 2244 3097 1772 3097 
Q 1472 3097 1187 3025 
Q 903 2953 641 2809 
L 641 3341 
Q 956 3463 1253 3523 
Q 1550 3584 1831 3584 
Q 2591 3584 2966 3190 
Q 3341 2797 3341 1997 
z
" transform="scale(0.015625)"/>
       <path id="DejaVuSans-6b" d="M 581 4863 
L 1159 4863 
L 1159 1991 
L 2875 3500 
L 3609 3500 
L 1753 1863 
L 3688 0 
L 2938 0 
L 1159 1709 
L 1159 0 
L 581 0 
L 581 4863 
z
" transform="scale(0.015625)"/>
       <path id="DejaVuSans-65" d="M 3597 1894 
L 3597 1613 
L 953 1613 
Q 991 1019 1311 708 
Q 1631 397 2203 397 
Q 2534 397 2845 478 
Q 3156 559 3463 722 
L 3463 178 
Q 3153 47 2828 -22 
Q 2503 -91 2169 -91 
Q 1331 -91 842 396 
Q 353 884 353 1716 
Q 353 2575 817 3079 
Q 1281 3584 2069 3584 
Q 2775 3584 3186 3129 
Q 3597 2675 3597 1894 
z
M 3022 2063 
Q 3016 2534 2758 2815 
Q 2500 3097 2075 3097 
Q 1594 3097 1305 2825 
Q 1016 2553 972 2059 
L 3022 2063 
z
" transform="scale(0.015625)"/>
       <path id="DejaVuSans-72" d="M 2631 2963 
Q 2534 3019 2420 3045 
Q 2306 3072 2169 3072 
Q 1681 3072 1420 2755 
Q 1159 2438 1159 1844 
L 1159 0 
L 581 0 
L 581 3500 
L 1159 3500 
L 1159 2956 
Q 1341 3275 1631 3429 
Q 1922 3584 2338 3584 
Q 2397 3584 2469 3576 
Q 2541 3569 2628 3553 
L 2631 2963 
z
" transform="scale(0.015625)"/>
       <path id="DejaVuSans-6c" d="M 603 4863 
L 1178 4863 
L 1178 0 
L 603 0 
L 603 4863 
z
" transform="scale(0.015625)"/>
       <path id="DejaVuSans-6d" d="M 3328 2828 
Q 3544 3216 3844 3400 
Q 4144 3584 4550 3584 
Q 5097 3584 5394 3201 
Q 5691 2819 5691 2113 
L 5691 0 
L 5113 0 
L 5113 2094 
Q 5113 2597 4934 2840 
Q 4756 3084 4391 3084 
Q 3944 3084 3684 2787 
Q 3425 2491 3425 1978 
L 3425 0 
L 2847 0 
L 2847 2094 
Q 2847 2600 2669 2842 
Q 2491 3084 2119 3084 
Q 1678 3084 1418 2786 
Q 1159 2488 1159 1978 
L 1159 0 
L 581 0 
L 581 3500 
L 1159 3500 
L 1159 2956 
Q 1356 3278 1631 3431 
Q 1906 3584 2284 3584 
Q 2666 3584 2933 3390 
Q 3200 3197 3328 2828 
z
" transform="scale(0.015625)"/>
       <path id="DejaVuSans-62" d="M 3116 1747 
Q 3116 2381 2855 2742 
Q 2594 3103 2138 3103 
Q 1681 3103 1420 2742 
Q 1159 2381 1159 1747 
Q 1159 1113 1420 752 
Q 1681 391 2138 391 
Q 2594 391 2855 752 
Q 3116 1113 3116 1747 
z
M 1159 2969 
Q 1341 3281 1617 3432 
Q 1894 3584 2278 3584 
Q 2916 3584 3314 3078 
Q 3713 2572 3713 1747 
Q 3713 922 3314 415 
Q 2916 -91 2278 -91 
Q 1894 -91 1617 61 
Q 1341 213 1159 525 
L 1159 0 
L 581 0 
L 581 4863 
L 1159 4863 
L 1159 2969 
z
" transform="scale(0.015625)"/>
       <path id="DejaVuSans-64" d="M 2906 2969 
L 2906 4863 
L 3481 4863 
L 3481 0 
L 2906 0 
L 2906 525 
Q 2725 213 2448 61 
Q 2172 -91 1784 -91 
Q 1150 -91 751 415 
Q 353 922 353 1747 
Q 353 2572 751 3078 
Q 1150 3584 1784 3584 
Q 2172 3584 2448 3432 
Q 2725 3281 2906 2969 
z
M 947 1747 
Q 947 1113 1208 752 
Q 1469 391 1925 391 
Q 2381 391 2643 752 
Q 2906 1113 2906 1747 
Q 2906 2381 2643 2742 
Q 2381 3103 1925 3103 
Q 1469 3103 1208 2742 
Q 947 2381 947 1747 
z
" transform="scale(0.015625)"/>
       <path id="DejaVuSans-3d" d="M 678 2906 
L 4684 2906 
L 4684 2381 
L 678 2381 
L 678 2906 
z
M 678 1631 
L 4684 1631 
L 4684 1100 
L 678 1100 
L 678 1631 
z
" transform="scale(0.015625)"/>
      </defs>
      <use xlink:href="#DejaVuSans-57"/>
      <use xlink:href="#DejaVuSans-68" x="98.876953"/>
      <use xlink:href="#DejaVuSans-69" x="162.255859"/>
      <use xlink:href="#DejaVuSans-74" x="190.039062"/>
      <use xlink:href="#DejaVuSans-74" x="229.248047"/>
      <use xlink:href="#DejaVuSans-61" x="268.457031"/>
      <use xlink:href="#DejaVuSans-6b" x="329.736328"/>
      <use xlink:href="#DejaVuSans-65" x="384.021484"/>
      <use xlink:href="#DejaVuSans-72" x="445.544922"/>
      <use xlink:href="#DejaVuSans-20" x="486.658203"/>
      <use xlink:href="#DejaVuSans-53" x="518.445312"/>
      <use xlink:href="#DejaVuSans-32" x="581.921875"/>
      <use xlink:href="#DejaVuSans-20" x="645.544922"/>
      <use xlink:href="#DejaVuSans-4e" x="677.332031"/>
      <use xlink:href="#DejaVuSans-44" x="752.136719"/>
      <use xlink:href="#DejaVuSans-56" x="827.388672"/>
      <use xlink:href="#DejaVuSans-49" x="895.796875"/>
      <use xlink:href="#DejaVuSans-20" x="925.289062"/>
      <use xlink:href="#DejaVuSans-6c" x="957.076172"/>
      <use xlink:href="#DejaVuSans-61" x="984.859375"/>
      <use xlink:href="#DejaVuSans-6d" x="1046.138672"/>
      <use xlink:href="#DejaVuSans-62" x="1143.550781"/>
      <use xlink:href="#DejaVuSans-64" x="1207.027344"/>
      <use xlink:href="#DejaVuSans-61" x="1270.503906"/>
      <use xlink:href="#DejaVuSans-3d" x="1331.783203"/>
      <use xlink:href="#DejaVuSans-31" x="1415.572266"/>
      <use xlink:href="#DejaVuSans-30" x="1479.195312"/>
      <use xlink:href="#DejaVuSans-30" x="1542.818359"/>
     </g>
    </g>
    <g id="line2d_26">
     <path d="M 153 94.294687 
L 163 94.294687 
L 173 94.294687 
" style="fill: none; stroke: #2ca02c; stroke-width: 1.5; stroke-linecap: square"/>
    </g>
    <g id="text_14">
     <!-- Whittaker S2 NDVI lambda=10000 -->
     <g transform="translate(181 97.794687)scale(0.1 -0.1)">
      <use xlink:href="#DejaVuSans-57"/>
      <use xlink:href="#DejaVuSans-68" x="98.876953"/>
      <use xlink:href="#DejaVuSans-69" x="162.255859"/>
      <use xlink:href="#DejaVuSans-74" x="190.039062"/>
      <use xlink:href="#DejaVuSans-74" x="229.248047"/>
      <use xlink:href="#DejaVuSans-61" x="268.457031"/>
      <use xlink:href="#DejaVuSans-6b" x="329.736328"/>
      <use xlink:href="#DejaVuSans-65" x="384.021484"/>
      <use xlink:href="#DejaVuSans-72" x="445.544922"/>
      <use xlink:href="#DejaVuSans-20" x="486.658203"/>
      <use xlink:href="#DejaVuSans-53" x="518.445312"/>
      <use xlink:href="#DejaVuSans-32" x="581.921875"/>
      <use xlink:href="#DejaVuSans-20" x="645.544922"/>
      <use xlink:href="#DejaVuSans-4e" x="677.332031"/>
      <use xlink:href="#DejaVuSans-44" x="752.136719"/>
      <use xlink:href="#DejaVuSans-56" x="827.388672"/>
      <use xlink:href="#DejaVuSans-49" x="895.796875"/>
      <use xlink:href="#DejaVuSans-20" x="925.289062"/>
      <use xlink:href="#DejaVuSans-6c" x="957.076172"/>
      <use xlink:href="#DejaVuSans-61" x="984.859375"/>
      <use xlink:href="#DejaVuSans-6d" x="1046.138672"/>
      <use xlink:href="#DejaVuSans-62" x="1143.550781"/>
      <use xlink:href="#DejaVuSans-64" x="1207.027344"/>
      <use xlink:href="#DejaVuSans-61" x="1270.503906"/>
      <use xlink:href="#DejaVuSans-3d" x="1331.783203"/>
      <use xlink:href="#DejaVuSans-31" x="1415.572266"/>
      <use xlink:href="#DejaVuSans-30" x="1479.195312"/>
      <use xlink:href="#DejaVuSans-30" x="1542.818359"/>
      <use xlink:href="#DejaVuSans-30" x="1606.441406"/>
      <use xlink:href="#DejaVuSans-30" x="1670.064453"/>
     </g>
    </g>
   </g>
  </g>
 </g>
 <defs>
  <clipPath id="p9503e2a842">
   <rect x="144" y="51.84" width="892.8" height="332.64"/>
  </clipPath>
 </defs>
</svg>
